  <svg
                    width="33"
                    height="32"
                    viewBox="0 0 33 32"
                    fill="none"
                    xmlns="http://www.w3.org/2000/svg"
                  >
                    <path
                      fill-rule="evenodd"
                      clip-rule="evenodd"
                      d="M16.9848 0.000732422C25.781 0.000732422 32.9089 7.12869 32.9089 16.0766C32.9089 24.8728 25.781 32.0007 16.9848 32.0007C8.0369 32.0007 0.908936 24.8728 0.908936 16.0766C0.908936 7.12869 8.0369 0.000732422 16.9848 0.000732422ZM7.12695 23.6595L24.5677 6.21874C22.4445 4.5505 19.8663 3.64054 16.9848 3.64054C10.0085 3.64054 4.54875 9.10026 4.54875 16.0766C4.54875 18.9581 5.4587 21.5363 7.12695 23.6595ZM26.8426 8.34196L9.25017 25.9344C11.3734 27.451 14.1032 28.5126 16.9848 28.5126C23.8094 28.5126 29.4208 22.9012 29.4208 16.0766C29.4208 13.195 28.3592 10.4652 26.8426 8.34196Z"
                      fill="white"
                    />
                  </svg>