   <svg
                    width="33"
                    height="32"
                    viewBox="0 0 33 32"
                    fill="none"
                    xmlns="http://www.w3.org/2000/svg"
                  >
                    <path
                      d="M28.6264 30.9988C28.6045 31.2723 28.4801 31.5274 28.2782 31.7131C28.0763 31.8989 27.8117 32.0016 27.5374 32.0007H27.4502C21.6183 31.4889 18.2367 29.0384 15.2526 26.8603C11.4899 24.0995 8.5113 21.9214 1.48135 24.3173C1.31741 24.3737 1.14239 24.39 0.970834 24.3651C0.799283 24.3402 0.636159 24.2747 0.495024 24.174C0.35389 24.0734 0.238823 23.9405 0.15939 23.7864C0.0799577 23.6323 0.0384538 23.4615 0.0383301 23.2882V5.35116C0.0383301 5.06232 0.153071 4.78531 0.357312 4.58107C0.561552 4.37683 0.838561 4.26208 1.1274 4.26208C1.41624 4.26208 1.69325 4.37683 1.89749 4.58107C2.10173 4.78531 2.21647 5.06232 2.21647 5.35116V21.807C9.34444 19.8249 12.8458 22.3951 16.5432 25.0742C19.4238 27.1816 22.4078 29.3652 27.6299 29.7953C27.7752 29.8069 27.9166 29.8474 28.0459 29.9146C28.1752 29.9818 28.2897 30.0742 28.3826 30.1864C28.4755 30.2986 28.5449 30.4283 28.5868 30.5679C28.6287 30.7074 28.6422 30.8539 28.6264 30.9988Z"
                      fill="white"
                    />
                    <path
                      d="M21.6183 11.341C21.4146 10.8124 21.08 10.3441 20.646 9.97993C20.212 9.61577 19.6927 9.36768 19.1367 9.25887C18.5806 9.15007 18.0061 9.1841 17.4668 9.35778C16.9276 9.53147 16.4412 9.83913 16.0532 10.252C15.1995 11.0809 14.628 12.1571 14.4196 13.3286C13.875 16.0241 15.1492 18.4581 17.2729 18.8665C17.4721 18.9052 17.6745 18.9253 17.8774 18.9264C18.3634 18.9143 18.8422 18.8061 19.2861 18.608C19.7301 18.4098 20.1304 18.1257 20.4639 17.772C21.254 16.95 21.781 15.911 21.9777 14.788C22.2211 13.6297 22.0954 12.4242 21.6183 11.341Z"
                      fill="white"
                    />
                    <path
                      d="M32.215 9.25544C32.1668 9.00743 32.0363 8.78294 31.8447 8.61833C31.7281 8.50993 31.5892 8.4284 31.4378 8.37948C31.2863 8.33056 31.1259 8.31543 30.968 8.33517C30.247 8.44336 29.5189 8.49796 28.7898 8.49853C25.1616 8.49499 21.6656 7.13545 18.9882 4.68679C18.8575 4.57243 18.7377 4.45264 18.6125 4.32739C17.4715 3.28374 16.1881 2.40736 14.8007 1.72451C11.7273 0.213621 8.26566 -0.322159 4.8793 0.188924C4.6125 0.222808 4.36676 0.351419 4.18685 0.551322C4.00693 0.751225 3.90483 1.00911 3.89914 1.27799V18.7304C3.89709 18.8893 3.92985 19.0468 3.99513 19.1917C4.06042 19.3366 4.15663 19.4655 4.27702 19.5693C4.39741 19.6731 4.53906 19.7492 4.69203 19.7924C4.84499 19.8357 5.00556 19.8449 5.16246 19.8194H5.21147C10.8529 18.9264 14.0438 21.159 17.42 23.5223C19.5981 25.0579 21.994 26.7241 25.1578 27.5518C26.4966 27.9128 27.877 28.0959 29.2636 28.0964C29.8571 28.0964 30.4616 28.0964 31.0606 28.0201C31.3557 28.0206 31.6399 27.908 31.8546 27.7054C32.0693 27.5029 32.1983 27.2258 32.215 26.9311V9.42969C32.2204 9.37173 32.2204 9.3134 32.215 9.25544ZM9.19202 2.30172C9.14582 3.19072 8.81968 4.04234 8.26024 4.7348C7.7008 5.42725 6.93672 5.92506 6.07728 6.15703V2.24182C6.49657 2.2037 6.91586 2.18737 7.33516 2.18737C7.95588 2.18699 8.57603 2.22518 9.19202 2.30172ZM6.07728 17.4997V13.7914C6.94454 14.0081 7.72769 14.4781 8.32698 15.1414C8.92628 15.8047 9.3146 16.6313 9.44251 17.516C8.32458 17.3902 7.19637 17.3847 6.07728 17.4997ZM30.0368 25.8692C28.9437 25.9217 27.8481 25.8541 26.7696 25.6677C26.9849 24.8999 27.4012 24.2033 27.9756 23.6501C28.5499 23.0968 29.2615 22.7068 30.0368 22.5203V25.8692ZM30.0368 20.2986C28.7763 20.5074 27.6019 21.0727 26.6524 21.9276C25.7029 22.7826 25.018 23.8914 24.6786 25.1232C22.4133 24.3391 20.5728 23.0485 18.6669 21.6872C16.5596 20.2115 14.4087 18.7031 11.6642 17.9299C11.6117 16.3873 11.0264 14.9106 10.0078 13.751C8.98914 12.5914 7.6002 11.8206 6.07728 11.5697V8.37874C7.44811 8.14105 8.70398 7.46265 9.65429 6.44649C10.6046 5.43034 11.1975 4.1319 11.3429 2.74824C12.1951 2.99454 13.0227 3.31901 13.8151 3.71751C15.0033 4.30509 16.1032 5.05663 17.0823 5.95011C17.9479 6.80524 18.909 7.55802 19.9466 8.19359C20.9644 8.81114 22.045 9.3186 23.1702 9.7074C23.6935 9.89426 24.2261 10.0542 24.7657 10.1866C24.8948 11.585 25.4811 12.9018 26.434 13.9334C27.3868 14.965 28.6531 15.6538 30.0368 15.8933V20.2986ZM30.0368 13.6716C29.3082 13.474 28.6457 13.0849 28.1181 12.5449C27.5906 12.0049 27.2171 11.3335 27.0364 10.6004C27.6153 10.6613 28.1969 10.6922 28.779 10.693C29.1983 10.693 29.6175 10.693 30.0368 10.6494V13.6716Z"
                      fill="white"
                    />
                  </svg>