<svg
                    width="33"
                    height="32"
                    viewBox="0 0 33 32"
                    fill="none"
                    xmlns="http://www.w3.org/2000/svg"
                  >
                    <path
                      d="M26.2852 19.1675L27.7788 17.6739L26.3362 16.2314L22.485 20.0793L19.5897 17.184L22.4305 14.3364C23.6821 14.6641 24.9971 14.6638 26.2485 14.3354C27.5 14.0071 28.6457 13.3618 29.5751 12.4618C32.0451 9.99859 32.4704 6.74269 30.7149 3.75216C30.6361 3.61801 30.5276 3.50365 30.3979 3.41781C30.2681 3.33198 30.1204 3.27695 29.9662 3.25692C29.8119 3.2369 29.655 3.25241 29.5077 3.30228C29.3603 3.35214 29.2263 3.43504 29.1158 3.54463L26.3941 6.23576C26.1458 6.16151 25.9199 6.02648 25.7369 5.84292C25.554 5.65935 25.4197 5.43304 25.3462 5.18449L28.0475 2.48315C28.1596 2.37131 28.2441 2.23494 28.2944 2.08483C28.3446 1.93471 28.3593 1.77496 28.3372 1.6182C28.3151 1.46144 28.2568 1.31197 28.167 1.18162C28.0771 1.05126 27.9582 0.943585 27.8196 0.867105C25.0298 -0.667284 21.6957 -0.13314 19.3447 2.22798C17.198 4.36796 16.572 7.33127 17.6436 9.98498L15.024 12.6047L9.92067 7.50138L10.3493 7.0727C10.5405 6.88133 10.6478 6.62192 10.6478 6.35144C10.6478 6.08096 10.5405 5.82155 10.3493 5.63017L6.01495 1.30599C5.82358 1.11485 5.56416 1.00749 5.29368 1.00749C5.02321 1.00749 4.76379 1.11485 4.57242 1.30599L2.16707 3.71134C1.97593 3.90271 1.86857 4.16213 1.86857 4.4326C1.86857 4.70308 1.97593 4.96249 2.16707 5.15387L6.49806 9.48486C6.68944 9.67599 6.94885 9.78335 7.21933 9.78335C7.4898 9.78335 7.74922 9.67599 7.94059 9.48486L8.47133 8.95412L13.5746 14.0574L10.2983 17.3337C9.04732 17.0044 7.73256 17.0034 6.48103 17.3305C5.2295 17.6577 4.08349 18.3021 3.15371 19.2015C0.69392 21.6647 0.27545 24.9172 2.01737 27.9043C2.09587 28.0387 2.20407 28.1534 2.33369 28.2396C2.46331 28.3257 2.61092 28.3811 2.76522 28.4014C2.91953 28.4218 3.07645 28.4066 3.22398 28.357C3.37151 28.3074 3.50574 28.2247 3.6164 28.1153L6.33816 25.4241C6.5894 25.4999 6.8179 25.6369 7.00317 25.8227C7.18843 26.0086 7.32466 26.2375 7.39964 26.489L4.6983 29.187C4.58625 29.2988 4.50176 29.4352 4.45149 29.5853C4.40123 29.7354 4.38657 29.8951 4.40868 30.0519C4.43079 30.2087 4.48907 30.3581 4.57889 30.4885C4.66872 30.6188 4.78764 30.7265 4.92625 30.803C5.94217 31.3758 7.08733 31.6803 8.25359 31.6876C9.21753 31.6727 10.1689 31.4666 11.0526 31.0811C11.9362 30.6957 12.7345 30.1386 13.4011 29.4421C15.5513 27.3021 16.1739 24.3388 15.1022 21.6851L18.1642 18.6231L21.0288 21.5218L16.9462 25.6044L18.3887 27.047L20.0218 25.4139L25.3836 30.7758C26.2191 31.574 27.3339 32.0136 28.4894 32.0004C29.6449 31.9873 30.7493 31.5224 31.5664 30.7053C32.3835 29.8882 32.8484 28.7838 32.8615 27.6283C32.8747 26.4728 32.4351 25.3581 31.6369 24.5226L26.2852 19.1675ZM13.1425 20.7461C12.9868 20.9015 12.8855 21.103 12.8536 21.3206C12.8218 21.5383 12.861 21.7604 12.9656 21.9539C14.0577 23.9748 13.6733 26.2917 11.945 27.9996C10.5841 29.3605 8.883 29.8878 7.23634 29.5238L9.1926 27.5675C9.29284 27.4676 9.37122 27.348 9.42276 27.2162C9.4743 27.0845 9.49788 26.9434 9.49199 26.802V26.768C9.44761 25.8625 9.06568 25.0064 8.42147 24.3685C7.77725 23.7306 6.91747 23.3571 6.01155 23.3216C5.87324 23.3176 5.73557 23.3418 5.6069 23.3927C5.47823 23.4436 5.36125 23.5201 5.26306 23.6176L3.22175 25.6317C2.6774 23.8625 3.15371 22.0968 4.60984 20.6441C5.34417 19.9394 6.26038 19.4535 7.2556 19.2407C8.25082 19.028 9.28564 19.0969 10.2439 19.4397C10.4262 19.5055 10.6235 19.5181 10.8126 19.4759C11.0018 19.4337 11.1751 19.3386 11.3122 19.2015L19.5931 10.9342C19.7488 10.7788 19.8501 10.5773 19.882 10.3597C19.9139 10.142 19.8746 9.91992 19.77 9.72641C18.6779 7.70211 19.0624 5.38862 20.7907 3.68072C22.1515 2.31984 23.8526 1.7925 25.4993 2.15654L23.543 4.1128C23.443 4.219 23.3653 4.34416 23.3145 4.4809C23.2636 4.61763 23.2407 4.76317 23.2471 4.90891C23.2883 5.81132 23.6673 6.66523 24.3089 7.30116C24.9505 7.93708 25.8077 8.30851 26.7105 8.34172C26.8482 8.34523 26.9853 8.32082 27.1133 8.26995C27.2414 8.21908 27.3578 8.14281 27.4556 8.04573L29.4969 6.02823C30.048 7.80077 29.5751 9.56651 28.136 11.0192C27.4004 11.7263 26.482 12.214 25.4842 12.4273C24.4864 12.6407 23.4489 12.5714 22.4884 12.227C22.3065 12.1619 22.1099 12.1497 21.9214 12.1918C21.7329 12.234 21.5603 12.3288 21.4235 12.4652L13.1425 20.7461Z"
                      fill="white"
                    />
                  </svg>