  <svg
                    width="34"
                    height="32"
                    viewBox="0 0 34 32"
                    fill="rgba(12, 35, 68, 1)"
                    xmlns="http://www.w3.org/2000/svg"
                  >
                    <path
                      fill-rule="evenodd"
                      clip-rule="evenodd"
                      d="M14.9108 17.7854C10.2719 17.8743 5.71451 19.2345 1.77186 21.5842L0.903809 22.1016V32.0007H2.68159H29.3483V22.1398L28.5324 21.6153C24.2708 18.8778 19.5497 17.6963 14.9108 17.7854Z"
                      fill="#0C2344"
                    />
                    <path
                      d="M15.126 0.000732422C11.2197 0.000732422 8.01489 3.20554 8.01489 7.11187C8.01489 11.0182 11.2197 14.223 15.126 14.223C19.0323 14.223 22.2372 11.0182 22.2372 7.11187C22.2372 3.20554 19.0323 0.000732422 15.126 0.000732422Z"
                      fill="#0C2344"
                    />
                    <path
                      fill-rule="evenodd"
                      clip-rule="evenodd"
                      d="M25.7927 8.31879V10.3094H33.7553V8.31879H25.7927Z"
                      fill="#0C2344"
                    />
                    <path
                      fill-rule="evenodd"
                      clip-rule="evenodd"
                      d="M28.7787 5.33279V13.2954H30.7693V5.33279H28.7787Z"
                      fill="#0C2344"
                    />
                  </svg>