<svg width="36" height="22" viewBox="0 0 36 22" fill="none" xmlns="http://www.w3.org/2000/svg">
<path d="M3.17576 1.14748V0.549696C3.17576 0.533016 3.17926 0.517143 3.18061 0.500732H0.6875V3.39927H0.923978C1.22057 3.40244 1.5148 3.34636 1.78943 3.23432C2.06406 3.12228 2.31356 2.95653 2.52329 2.7468C2.73303 2.53707 2.89877 2.28757 3.01081 2.01294C3.12285 1.73831 3.17893 1.44407 3.17576 1.14748Z" fill="#0C2344"/>
<path d="M16.6263 11.5657C17.1465 11.5652 17.6505 11.3843 18.0523 11.0538C18.4541 10.7234 18.729 10.2638 18.83 9.75349C18.931 9.24314 18.8519 8.71356 18.6063 8.25496C18.3606 7.79637 17.9635 7.43714 17.4827 7.23847C17.0019 7.0398 16.4671 7.01398 15.9693 7.16542C15.4716 7.31686 15.0418 7.63618 14.7531 8.06898C14.4644 8.50179 14.3347 9.02129 14.3861 9.539C14.4375 10.0567 14.6668 10.5406 15.0349 10.9082C15.2436 11.1175 15.4916 11.2834 15.7648 11.3963C16.0379 11.5092 16.3307 11.5667 16.6263 11.5657Z" fill="#0C2344"/>
<path d="M3.21558 17.4873C3.21879 17.1907 3.16273 16.8965 3.0507 16.6219C2.93867 16.3472 2.77292 16.0977 2.56318 15.888C2.35343 15.6783 2.10392 15.5126 1.82927 15.4006C1.55463 15.2886 1.26038 15.2326 0.963794 15.2358H0.6875V18.1343H3.22177C3.22015 18.1179 3.21666 18.1021 3.21666 18.0854L3.21558 17.4873Z" fill="#0C2344"/>
<path d="M31.9699 3.39927H32.1665V0.500732H29.7133C29.7146 0.517143 29.7181 0.533016 29.7181 0.549696V1.14748C29.7149 1.44407 29.771 1.73831 29.8831 2.01294C29.9951 2.28757 30.1608 2.53707 30.3706 2.7468C30.5803 2.95653 30.8298 3.12228 31.1044 3.23432C31.3791 3.34636 31.6733 3.40244 31.9699 3.39927Z" fill="#0C2344"/>
<path d="M33.2427 3.8612V18.6724C33.2427 18.8151 33.186 18.952 33.0851 19.0529C32.9842 19.1538 32.8473 19.2105 32.7046 19.2105H4.0542V21.5007H35.5324V3.86712H33.3021C33.2822 3.86625 33.2624 3.86428 33.2427 3.8612Z" fill="#0C2344"/>
<path d="M29.7181 17.4873V18.0854C29.7181 18.1021 29.7146 18.1179 29.7133 18.1343H32.1665V15.2358H31.9699C31.6733 15.2326 31.3791 15.2887 31.1045 15.4007C30.8298 15.5127 30.5803 15.6784 30.3706 15.8881C30.1609 16.0978 29.9951 16.3473 29.8831 16.6219C29.771 16.8965 29.7149 17.1908 29.7181 17.4873Z" fill="#0C2344"/>
<path d="M4.2917 18.0854C4.2917 18.1021 4.28848 18.1179 4.28686 18.1343H28.6468C28.6468 18.1179 28.6419 18.1021 28.6419 18.0854V17.4873C28.6373 17.049 28.7201 16.6142 28.8857 16.2083C29.0513 15.8025 29.2963 15.4337 29.6062 15.1238C29.9162 14.8139 30.2849 14.5689 30.6908 14.4034C31.0967 14.2378 31.5315 14.155 31.9699 14.1597H32.1665V4.47459H31.9699C31.5315 4.47934 31.0966 4.39651 30.6907 4.23095C30.2848 4.06539 29.916 3.82043 29.6061 3.51046C29.2961 3.20048 29.0511 2.83172 28.8856 2.42581C28.72 2.01991 28.6372 1.58502 28.6419 1.14668V0.549696C28.6419 0.533016 28.6454 0.517143 28.6471 0.500732H4.24678C4.24839 0.517143 4.25189 0.533016 4.25189 0.549696V1.14748C4.25664 1.58583 4.17381 2.02071 4.00825 2.42662C3.84269 2.83253 3.59774 3.20129 3.28776 3.51126C2.97778 3.82124 2.60902 4.06619 2.20312 4.23175C1.79721 4.39731 1.36233 4.48015 0.923978 4.47539H0.6875V14.1605H0.963794C1.40212 14.1557 1.83698 14.2386 2.24287 14.4041C2.64876 14.5697 3.01751 14.8146 3.32748 15.1245C3.63745 15.4345 3.88241 15.8032 4.04799 16.2091C4.21356 16.615 4.29642 17.0498 4.2917 17.4881V18.0854ZM12.096 4.78612C13.1444 3.7347 14.525 3.07944 16.0025 2.93205C17.48 2.78466 18.9628 3.15427 20.1983 3.97786C21.4337 4.80145 22.3453 6.02803 22.7776 7.44852C23.2099 8.869 23.1361 10.3954 22.5689 11.7676C22.0016 13.1398 20.976 14.2728 19.6669 14.9734C18.3578 15.674 16.8462 15.8989 15.3898 15.6097C13.9335 15.3206 12.6225 14.5352 11.6803 13.3876C10.7382 12.24 10.2233 10.8011 10.2233 9.31633C10.2204 8.4749 10.3844 7.64124 10.7058 6.86363C11.0273 6.08601 11.4998 5.37988 12.096 4.78612Z" fill="#0C2344"/>
<path d="M16.6263 14.6445C17.8561 14.6423 19.0471 14.2139 19.9965 13.4323C20.946 12.6506 21.5951 11.564 21.8334 10.3575C22.0718 9.15104 21.8845 7.89925 21.3036 6.8153C20.7227 5.73136 19.784 4.88228 18.6474 4.41267C17.5108 3.94305 16.2465 3.88192 15.0699 4.2397C13.8933 4.59747 12.8771 5.35203 12.1943 6.37487C11.5115 7.39772 11.2044 8.62561 11.3252 9.84947C11.446 11.0733 11.9873 12.2175 12.8569 13.0871C13.351 13.583 13.9386 13.976 14.5856 14.2433C15.2326 14.5106 15.9262 14.647 16.6263 14.6445ZM14.2741 6.96527C14.7392 6.50056 15.3317 6.18418 15.9766 6.05613C16.6215 5.92807 17.2899 5.99409 17.8973 6.24583C18.5047 6.49758 19.0238 6.92375 19.389 7.47047C19.7542 8.01719 19.9491 8.65992 19.9491 9.3174C19.9491 9.97489 19.7542 10.6176 19.389 11.1643C19.0238 11.7111 18.5047 12.1372 17.8973 12.389C17.2899 12.6407 16.6215 12.7067 15.9766 12.5787C15.3317 12.4506 14.7392 12.1342 14.2741 11.6695C13.6514 11.0451 13.3017 10.1993 13.3017 9.3174C13.3017 8.43554 13.6514 7.58967 14.2741 6.96527Z" fill="#0C2344"/>
</svg>
