<svg width="41" height="28" viewBox="0 0 41 28" fill="none" xmlns="http://www.w3.org/2000/svg">
<path d="M4.96141 0L0.000823259 22.0024C-0.0122566 22.7853 0.130639 23.5629 0.42118 24.29C0.711721 25.017 1.14409 25.679 1.69309 26.2372C2.24209 26.7955 2.89672 27.2388 3.61883 27.5415C4.34094 27.8441 5.11607 28 5.89903 28C6.682 28 7.45713 27.8441 8.17924 27.5415C8.90135 27.2388 9.55598 26.7955 10.105 26.2372C10.654 25.679 11.0863 25.017 11.3769 24.29C11.6674 23.5629 11.8103 22.7853 11.7972 22.0024C11.7972 23.5669 12.4187 25.0674 13.525 26.1737C14.6313 27.2799 16.1318 27.9015 17.6963 27.9015C19.2608 27.9015 20.7612 27.2799 21.8675 26.1737C22.9738 25.0674 23.5953 23.5669 23.5953 22.0024C23.5822 22.7853 23.7251 23.5629 24.0157 24.29C24.3062 25.017 24.7386 25.679 25.2876 26.2372C25.8366 26.7955 26.4912 27.2388 27.2133 27.5415C27.9354 27.8441 28.7106 28 29.4935 28C30.2765 28 31.0516 27.8441 31.7737 27.5415C32.4958 27.2388 33.1505 26.7955 33.6995 26.2372C34.2485 25.679 34.6808 25.017 34.9714 24.29C35.2619 23.5629 35.4048 22.7853 35.3917 22.0024L40.354 0H4.96141Z" fill="#005CFF"/>
</svg>
