<svg width="186" height="20" viewBox="0 0 186 20" fill="none" xmlns="http://www.w3.org/2000/svg">
<path d="M6.73437 16.319C5.34378 16.319 4.17132 16.1009 3.21699 15.6646C2.27629 15.2284 1.56055 14.6353 1.06975 13.8855C0.592586 13.122 0.354004 12.2495 0.354004 11.2679H4.03499C4.03499 11.8132 4.25312 12.2699 4.68938 12.638C5.13928 12.9925 5.82094 13.1697 6.73437 13.1697C7.5251 13.1697 8.1386 13.0198 8.57486 12.7198C9.02476 12.4199 9.24971 12.0177 9.24971 11.5133C9.24971 11.077 9.06566 10.743 8.69756 10.5112C8.32946 10.2658 7.70915 10.1091 6.83662 10.0409L5.87548 9.9591C4.33492 9.82277 3.10792 9.33879 2.19449 8.50716C1.28107 7.67553 0.824352 6.57123 0.824352 5.19427C0.824352 3.73551 1.32878 2.59714 2.33764 1.77914C3.34651 0.947512 4.6962 0.531698 6.38672 0.531698C7.61372 0.531698 8.64985 0.736197 9.49511 1.14519C10.354 1.55419 11.0084 2.13361 11.4583 2.88344C11.9082 3.61963 12.1331 4.47853 12.1331 5.46012H8.45216C8.45216 4.96932 8.26811 4.55351 7.90002 4.21268C7.54555 3.85821 7.04112 3.68098 6.38672 3.68098C5.75959 3.68098 5.28925 3.82413 4.97568 4.11043C4.66212 4.39673 4.50533 4.75801 4.50533 5.19427C4.50533 5.57601 4.63485 5.9032 4.89388 6.17587C5.15291 6.44853 5.60281 6.61213 6.24357 6.66667L7.20472 6.74847C8.32265 6.8439 9.31106 7.0893 10.17 7.48466C11.0288 7.86639 11.7037 8.39127 12.1945 9.0593C12.6853 9.72733 12.9307 10.5453 12.9307 11.5133C12.9307 12.4813 12.6785 13.3265 12.174 14.0491C11.6832 14.7716 10.9743 15.3306 10.0473 15.726C9.13383 16.1213 8.02953 16.319 6.73437 16.319Z" fill="#0C2344"/>
<path d="M14.734 15.91V0.981596H18.4558V6.44172C19.0421 4.98296 20.1259 4.25358 21.7074 4.25358H21.871C23.098 4.25358 24.0318 4.69666 24.6726 5.58282C25.327 6.46898 25.6542 7.77096 25.6542 9.48875V15.91H21.9323V9.3456C21.9323 8.82754 21.7755 8.40491 21.462 8.07771C21.1484 7.73688 20.7326 7.56646 20.2145 7.56646C19.6965 7.56646 19.2738 7.73688 18.9466 8.07771C18.6194 8.40491 18.4558 8.84117 18.4558 9.3865V15.91H14.734Z" fill="#0C2344"/>
<path d="M33.7779 16.319C32.4555 16.319 31.3239 16.06 30.3832 15.5419C29.4425 15.0102 28.7268 14.3081 28.236 13.4356C27.7452 12.5631 27.4998 11.6019 27.4998 10.5521V10.0613C27.4998 8.95706 27.752 7.96864 28.2564 7.09611C28.7745 6.20995 29.5039 5.50784 30.4446 4.98977C31.3853 4.47171 32.4964 4.21268 33.7779 4.21268C35.0594 4.21268 36.1706 4.47171 37.1113 4.98977C38.0519 5.50784 38.7745 6.20995 39.2789 7.09611C39.797 7.96864 40.056 8.95706 40.056 10.0613V10.5521C40.056 11.6019 39.8106 12.5631 39.3198 13.4356C38.829 14.3081 38.1133 15.0102 37.1726 15.5419C36.2455 16.06 35.114 16.319 33.7779 16.319ZM33.7779 13.2106C34.6232 13.2106 35.2571 12.938 35.6798 12.3926C36.116 11.8473 36.3342 11.152 36.3342 10.3067C36.3342 9.43422 36.1092 8.71847 35.6593 8.15951C35.223 7.60055 34.5959 7.32106 33.7779 7.32106C32.9599 7.32106 32.326 7.60055 31.8761 8.15951C31.4398 8.71847 31.2217 9.43422 31.2217 10.3067C31.2217 11.152 31.433 11.8473 31.8556 12.3926C32.2919 12.938 32.9327 13.2106 33.7779 13.2106Z" fill="#0C2344"/>
<path d="M42.0937 20V4.62168H45.0385V7.50511C45.3657 6.46898 45.911 5.67825 46.6745 5.13292C47.4379 4.57396 48.3513 4.29448 49.4147 4.29448C50.4509 4.29448 51.3507 4.53988 52.1141 5.03068C52.8776 5.52147 53.4706 6.19632 53.8933 7.05521C54.3159 7.91411 54.5272 8.89571 54.5272 10V10.4908C54.5272 11.5951 54.3295 12.5835 53.9342 13.456C53.5524 14.3286 52.9798 15.017 52.2164 15.5215C51.4665 16.0259 50.5395 16.2781 49.4352 16.2781C48.6581 16.2781 47.956 16.1418 47.3289 15.8691C46.7154 15.5965 46.2109 15.1806 45.8156 14.6217V20H42.0937ZM48.3104 13.2106C49.0466 13.2106 49.6465 12.938 50.11 12.3926C50.5736 11.8337 50.8053 11.1179 50.8053 10.2454C50.8053 9.37287 50.5736 8.67757 50.11 8.15951C49.6601 7.62781 49.0603 7.36196 48.3104 7.36196C47.8606 7.36196 47.4379 7.46421 47.0426 7.66871C46.6608 7.87321 46.3473 8.17314 46.1019 8.56851C45.8565 8.96387 45.7338 9.44104 45.7338 10V10.6953C45.7338 11.227 45.8633 11.6837 46.1223 12.0654C46.3813 12.4335 46.7085 12.7198 47.1039 12.9243C47.4993 13.1152 47.9014 13.2106 48.3104 13.2106Z" fill="#0C2344"/>
<path d="M59.7216 15.91V4.29448H55.6317V0.981596H67.6153V4.29448H63.5253V15.91H59.7216Z" fill="#0C2344"/>
<path d="M73.5594 16.319C72.2369 16.319 71.1054 16.06 70.1647 15.5419C69.224 15.0102 68.5082 14.3081 68.0174 13.4356C67.5266 12.5631 67.2812 11.6019 67.2812 10.5521V10.0613C67.2812 8.95706 67.5335 7.96864 68.0379 7.09611C68.556 6.20995 69.2853 5.50784 70.226 4.98977C71.1667 4.47171 72.2778 4.21268 73.5594 4.21268C74.8409 4.21268 75.952 4.47171 76.8927 4.98977C77.8334 5.50784 78.5559 6.20995 79.0604 7.09611C79.5784 7.96864 79.8375 8.95706 79.8375 10.0613V10.5521C79.8375 11.6019 79.5921 12.5631 79.1013 13.4356C78.6105 14.3081 77.8947 15.0102 76.954 15.5419C76.027 16.06 74.8954 16.319 73.5594 16.319ZM73.5594 13.2106C74.4046 13.2106 75.0386 12.938 75.4612 12.3926C75.8975 11.8473 76.1156 11.152 76.1156 10.3067C76.1156 9.43422 75.8906 8.71847 75.4408 8.15951C75.0045 7.60055 74.3774 7.32106 73.5594 7.32106C72.7414 7.32106 72.1074 7.60055 71.6575 8.15951C71.2213 8.71847 71.0031 9.43422 71.0031 10.3067C71.0031 11.152 71.2144 11.8473 71.6371 12.3926C72.0733 12.938 72.7141 13.2106 73.5594 13.2106Z" fill="#0C2344"/>
<path d="M81.8751 20V4.62168H84.8199V7.50511C85.1471 6.46898 85.6924 5.67825 86.4559 5.13292C87.2193 4.57396 88.1328 4.29448 89.1962 4.29448C90.2323 4.29448 91.1321 4.53988 91.8956 5.03068C92.659 5.52147 93.2521 6.19632 93.6747 7.05521C94.0973 7.91411 94.3087 8.89571 94.3087 10V10.4908C94.3087 11.5951 94.111 12.5835 93.7156 13.456C93.3339 14.3286 92.7613 15.017 91.9978 15.5215C91.248 16.0259 90.3209 16.2781 89.2166 16.2781C88.4395 16.2781 87.7374 16.1418 87.1103 15.8691C86.4968 15.5965 85.9924 15.1806 85.597 14.6217V20H81.8751ZM88.0919 13.2106C88.8281 13.2106 89.4279 12.938 89.8915 12.3926C90.355 11.8337 90.5868 11.1179 90.5868 10.2454C90.5868 9.37287 90.355 8.67757 89.8915 8.15951C89.4416 7.62781 88.8417 7.36196 88.0919 7.36196C87.642 7.36196 87.2194 7.46421 86.824 7.66871C86.4423 7.87321 86.1287 8.17314 85.8833 8.56851C85.6379 8.96387 85.5152 9.44104 85.5152 10V10.6953C85.5152 11.227 85.6447 11.6837 85.9037 12.0654C86.1628 12.4335 86.49 12.7198 86.8853 12.9243C87.2807 13.1152 87.6829 13.2106 88.0919 13.2106Z" fill="#0C2344"/>
<path d="M102.898 16.319C101.466 16.319 100.253 16.0532 99.2577 15.5215C98.2761 14.9898 97.5263 14.2399 97.0082 13.272C96.4901 12.2904 96.2311 11.1316 96.2311 9.7955V0.981596H100.035V9.8773C100.035 10.7635 100.28 11.4656 100.771 11.9836C101.275 12.5017 101.984 12.7607 102.898 12.7607C103.811 12.7607 104.513 12.5085 105.004 12.0041C105.495 11.486 105.74 10.7771 105.74 9.8773V0.981596H109.544V9.7955C109.544 11.7996 108.971 13.3879 107.826 14.5603C106.695 15.7328 105.052 16.319 102.898 16.319Z" fill="#0C2344"/>
<path d="M112.131 20V4.62168H115.075V7.50511C115.403 6.46898 115.948 5.67825 116.711 5.13292C117.475 4.57396 118.388 4.29448 119.452 4.29448C120.488 4.29448 121.388 4.53988 122.151 5.03068C122.914 5.52147 123.508 6.19632 123.93 7.05521C124.353 7.91411 124.564 8.89571 124.564 10V10.4908C124.564 11.5951 124.366 12.5835 123.971 13.456C123.589 14.3286 123.017 15.017 122.253 15.5215C121.503 16.0259 120.576 16.2781 119.472 16.2781C118.695 16.2781 117.993 16.1418 117.366 15.8691C116.752 15.5965 116.248 15.1806 115.852 14.6217V20H112.131ZM118.347 13.2106C119.084 13.2106 119.683 12.938 120.147 12.3926C120.61 11.8337 120.842 11.1179 120.842 10.2454C120.842 9.37287 120.61 8.67757 120.147 8.15951C119.697 7.62781 119.097 7.36196 118.347 7.36196C117.897 7.36196 117.475 7.46421 117.079 7.66871C116.698 7.87321 116.384 8.17314 116.139 8.56851C115.893 8.96387 115.771 9.44104 115.771 10V10.6953C115.771 11.227 115.9 11.6837 116.159 12.0654C116.418 12.4335 116.745 12.7198 117.141 12.9243C117.536 13.1152 117.938 13.2106 118.347 13.2106Z" fill="#0C2344"/>
<path d="M130.947 15.9918V0.858896H136.632C137.981 0.858896 139.161 1.04976 140.17 1.43149C141.192 1.81323 142.044 2.34492 142.726 3.02658C143.408 3.69461 143.919 4.47171 144.26 5.35787C144.6 6.24404 144.771 7.18473 144.771 8.17996V8.62986C144.771 9.54329 144.6 10.4431 144.26 11.3292C143.919 12.2018 143.408 12.9925 142.726 13.7014C142.044 14.3967 141.192 14.9557 140.17 15.3783C139.161 15.7873 137.981 15.9918 136.632 15.9918H130.947ZM136.795 4.41718H134.75V12.4335H136.795C138.091 12.4335 139.099 12.0723 139.822 11.3497C140.558 10.6271 140.926 9.64553 140.926 8.40491C140.926 7.09611 140.558 6.1077 139.822 5.43967C139.099 4.75801 138.091 4.41718 136.795 4.41718Z" fill="#0C2344"/>
<path d="M146.7 15.91V4.62168H149.644V8.60941C149.767 7.31425 150.149 6.29857 150.79 5.56237C151.444 4.82618 152.33 4.45808 153.448 4.45808H153.898V7.64826H153.039C152.208 7.64826 151.56 7.87321 151.096 8.32311C150.647 8.77301 150.422 9.42059 150.422 10.2658V15.91H146.7Z" fill="#0C2344"/>
<path d="M157.412 3.72188C156.744 3.72188 156.246 3.55147 155.919 3.21063C155.606 2.85617 155.449 2.40627 155.449 1.86094C155.449 1.31561 155.606 0.872529 155.919 0.531698C156.246 0.177233 156.744 0 157.412 0C158.094 0 158.591 0.177233 158.905 0.531698C159.218 0.872529 159.375 1.31561 159.375 1.86094C159.375 2.40627 159.218 2.85617 158.905 3.21063C158.591 3.55147 158.094 3.72188 157.412 3.72188ZM155.899 15.91V7.32106H154.467V4.62168H159.62V15.91H155.899Z" fill="#0C2344"/>
<path d="M164.483 15.91L161.252 4.62168H165.056L167.244 12.8016H167.674L169.535 4.62168H173.093L170.312 15.91H164.483Z" fill="#0C2344"/>
<path d="M179.835 16.319C178.881 16.319 178.036 16.1554 177.299 15.8282C176.563 15.501 175.943 15.0579 175.438 14.499C174.934 13.94 174.546 13.3129 174.273 12.6176C174.014 11.9223 173.884 11.2065 173.884 10.4703V10.0613C173.884 9.29789 174.014 8.56851 174.273 7.87321C174.546 7.16428 174.927 6.53715 175.418 5.99182C175.922 5.44649 176.536 5.01704 177.259 4.70348C177.981 4.37628 178.799 4.21268 179.713 4.21268C180.926 4.21268 181.955 4.48534 182.8 5.03068C183.646 5.57601 184.293 6.29857 184.743 7.19836C185.193 8.08453 185.418 9.05249 185.418 10.1023V11.2883H177.402C177.524 11.9291 177.783 12.4335 178.179 12.8016C178.574 13.1561 179.126 13.3333 179.835 13.3333C180.871 13.3333 181.533 13.0061 181.819 12.3517H185.214C185.05 13.1152 184.723 13.7969 184.232 14.3967C183.755 14.9966 183.141 15.4669 182.391 15.8078C181.655 16.1486 180.803 16.319 179.835 16.319ZM179.713 7.19836C179.099 7.19836 178.588 7.3756 178.179 7.73006C177.783 8.07089 177.524 8.58896 177.402 9.28425H181.921C181.689 7.89366 180.953 7.19836 179.713 7.19836Z" fill="#0C2344"/>
</svg>
